<svg width="301" height="67" viewBox="0 0 301 67" fill="none" xmlns="http://www.w3.org/2000/svg">
<rect width="301" height="67" rx="10" fill="#A5E1AD"/>
<path d="M98.5273 37.5469H91.3789L89.7734 42H87.4531L93.9688 24.9375H95.9375L102.465 42H100.156L98.5273 37.5469ZM92.0586 35.6953H97.8594L94.9531 27.7148L92.0586 35.6953ZM104.762 42V24.9375H109.578C111.062 24.9375 112.375 25.2656 113.516 25.9219C114.656 26.5781 115.535 27.5117 116.152 28.7227C116.777 29.9336 117.094 31.3242 117.102 32.8945V33.9844C117.102 35.5938 116.789 37.0039 116.164 38.2148C115.547 39.4258 114.66 40.3555 113.504 41.0039C112.355 41.6523 111.016 41.9844 109.484 42H104.762ZM107.012 26.7891V40.1602H109.379C111.113 40.1602 112.461 39.6211 113.422 38.543C114.391 37.4648 114.875 35.9297 114.875 33.9375V32.9414C114.875 31.0039 114.418 29.5 113.504 28.4297C112.598 27.3516 111.309 26.8047 109.637 26.7891H107.012ZM120.512 42V24.9375H125.328C126.812 24.9375 128.125 25.2656 129.266 25.9219C130.406 26.5781 131.285 27.5117 131.902 28.7227C132.527 29.9336 132.844 31.3242 132.852 32.8945V33.9844C132.852 35.5938 132.539 37.0039 131.914 38.2148C131.297 39.4258 130.41 40.3555 129.254 41.0039C128.105 41.6523 126.766 41.9844 125.234 42H120.512ZM122.762 26.7891V40.1602H125.129C126.863 40.1602 128.211 39.6211 129.172 38.543C130.141 37.4648 130.625 35.9297 130.625 33.9375V32.9414C130.625 31.0039 130.168 29.5 129.254 28.4297C128.348 27.3516 127.059 26.8047 125.387 26.7891H122.762ZM151.859 34.1133H144.465V40.1602H153.055V42H142.215V24.9375H152.938V26.7891H144.465V32.2734H151.859V34.1133ZM161.504 39.0117L166.379 24.9375H168.84L162.512 42H160.52L154.203 24.9375H156.652L161.504 39.0117ZM180.781 34.1133H173.387V40.1602H181.977V42H171.137V24.9375H181.859V26.7891H173.387V32.2734H180.781V34.1133ZM197.891 42H195.629L187.039 28.8516V42H184.777V24.9375H187.039L195.652 38.1445V24.9375H197.891V42ZM213.324 26.7891H207.84V42H205.602V26.7891H200.129V24.9375H213.324V26.7891Z" fill="#4666A5"/>
</svg>
