<svg width="301" height="67" viewBox="0 0 301 67" fill="none" xmlns="http://www.w3.org/2000/svg">
<rect width="301" height="67" rx="10" fill="#FF7272"/>
<path d="M70.6133 43V25.9375H75.4297C76.9141 25.9375 78.2266 26.2656 79.3672 26.9219C80.5078 27.5781 81.3867 28.5117 82.0039 29.7227C82.6289 30.9336 82.9453 32.3242 82.9531 33.8945V34.9844C82.9531 36.5938 82.6406 38.0039 82.0156 39.2148C81.3984 40.4258 80.5117 41.3555 79.3555 42.0039C78.207 42.6523 76.8672 42.9844 75.3359 43H70.6133ZM72.8633 27.7891V41.1602H75.2305C76.9648 41.1602 78.3125 40.6211 79.2734 39.543C80.2422 38.4648 80.7266 36.9297 80.7266 34.9375V33.9414C80.7266 32.0039 80.2695 30.5 79.3555 29.4297C78.4492 28.3516 77.1602 27.8047 75.4883 27.7891H72.8633ZM96.0078 35.1133H88.6133V41.1602H97.2031V43H86.3633V25.9375H97.0859V27.7891H88.6133V33.2734H96.0078V35.1133ZM102.266 41.1602H110.352V43H100.004V25.9375H102.266V41.1602ZM122.562 35.1133H115.168V41.1602H123.758V43H112.918V25.9375H123.641V27.7891H115.168V33.2734H122.562V35.1133ZM138.582 27.7891H133.098V43H130.859V27.7891H125.387V25.9375H138.582V27.7891ZM150.758 35.1133H143.363V41.1602H151.953V43H141.113V25.9375H151.836V27.7891H143.363V33.2734H150.758V35.1133ZM170.352 35.1133H162.957V41.1602H171.547V43H160.707V25.9375H171.43V27.7891H162.957V33.2734H170.352V35.1133ZM179.996 40.0117L184.871 25.9375H187.332L181.004 43H179.012L172.695 25.9375H175.145L179.996 40.0117ZM199.273 35.1133H191.879V41.1602H200.469V43H189.629V25.9375H200.352V27.7891H191.879V33.2734H199.273V35.1133ZM216.383 43H214.121L205.531 29.8516V43H203.27V25.9375H205.531L214.145 39.1445V25.9375H216.383V43ZM231.816 27.7891H226.332V43H224.094V27.7891H218.621V25.9375H231.816V27.7891Z" fill="#4666A5"/>
</svg>
