<svg width="301" height="67" viewBox="0 0 301 67" fill="none" xmlns="http://www.w3.org/2000/svg">
<rect width="301" height="67" rx="10" fill="#FFD369"/>
<path d="M91.6133 35.1133H84.2188V41.1602H92.8086V43H81.9688V25.9375H92.6914V27.7891H84.2188V33.2734H91.6133V35.1133ZM95.6094 43V25.9375H100.426C101.91 25.9375 103.223 26.2656 104.363 26.9219C105.504 27.5781 106.383 28.5117 107 29.7227C107.625 30.9336 107.941 32.3242 107.949 33.8945V34.9844C107.949 36.5938 107.637 38.0039 107.012 39.2148C106.395 40.4258 105.508 41.3555 104.352 42.0039C103.203 42.6523 101.863 42.9844 100.332 43H95.6094ZM97.8594 27.7891V41.1602H100.227C101.961 41.1602 103.309 40.6211 104.27 39.543C105.238 38.4648 105.723 36.9297 105.723 34.9375V33.9414C105.723 32.0039 105.266 30.5 104.352 29.4297C103.445 28.3516 102.156 27.8047 100.484 27.7891H97.8594ZM113.773 43H111.523V25.9375H113.773V43ZM129.336 27.7891H123.852V43H121.613V27.7891H116.141V25.9375H129.336V27.7891ZM146.996 35.1133H139.602V41.1602H148.191V43H137.352V25.9375H148.074V27.7891H139.602V33.2734H146.996V35.1133ZM156.641 40.0117L161.516 25.9375H163.977L157.648 43H155.656L149.34 25.9375H151.789L156.641 40.0117ZM175.918 35.1133H168.523V41.1602H177.113V43H166.273V25.9375H176.996V27.7891H168.523V33.2734H175.918V35.1133ZM193.027 43H190.766L182.176 29.8516V43H179.914V25.9375H182.176L190.789 39.1445V25.9375H193.027V43ZM208.461 27.7891H202.977V43H200.738V27.7891H195.266V25.9375H208.461V27.7891Z" fill="#4666A5"/>
</svg>
