<svg width="173" height="51" viewBox="0 0 173 51" fill="none" xmlns="http://www.w3.org/2000/svg">
<path d="M2.304 11.8H13.5V14.284H5.004V22.816H12.816V25.3H5.004V34.516H13.68V37H2.304V11.8ZM23.2816 29.044L23.9296 32.896H24.0016L24.7216 28.972L29.4016 11.8H32.1736L24.5416 37.396H23.1016L15.3616 11.8H18.3496L23.2816 29.044ZM34.4017 11.8H45.5977V14.284H37.1017V22.816H44.9137V25.3H37.1017V34.516H45.7777V37H34.4017V11.8ZM53.6873 21.016L52.1393 17.056H52.0312L52.4273 21.016V37H49.8353V11.404H51.4553L60.7793 27.748L62.2553 31.528H62.3993L62.0033 27.748V11.8H64.5953V37.396H62.9393L53.6873 21.016ZM82.4903 14.284H76.2983V37H73.5983V14.284H67.4063V11.8H82.4903V14.284ZM91.7767 12.052C92.5447 11.836 93.3607 11.692 94.2247 11.62C95.0887 11.548 95.9407 11.512 96.7807 11.512C97.7407 11.512 98.6887 11.62 99.6247 11.836C100.561 12.052 101.401 12.448 102.145 13.024C102.913 13.6 103.525 14.392 103.981 15.4C104.461 16.408 104.701 17.692 104.701 19.252C104.701 20.764 104.473 22.048 104.017 23.104C103.585 24.16 102.997 25.024 102.253 25.696C101.533 26.344 100.693 26.824 99.7327 27.136C98.7967 27.424 97.8247 27.568 96.8167 27.568C96.7207 27.568 96.5647 27.568 96.3487 27.568C96.1327 27.568 95.9047 27.568 95.6647 27.568C95.4247 27.544 95.1847 27.52 94.9447 27.496C94.7287 27.472 94.5727 27.448 94.4767 27.424V37H91.7767V12.052ZM96.9247 13.996C96.4447 13.996 95.9767 14.02 95.5207 14.068C95.0887 14.092 94.7407 14.14 94.4767 14.212V24.94C94.5727 24.988 94.7167 25.024 94.9087 25.048C95.1247 25.048 95.3407 25.06 95.5567 25.084C95.7727 25.084 95.9767 25.084 96.1687 25.084C96.3847 25.084 96.5407 25.084 96.6367 25.084C97.3087 25.084 97.9567 25 98.5807 24.832C99.2047 24.664 99.7567 24.364 100.237 23.932C100.717 23.476 101.101 22.876 101.389 22.132C101.701 21.364 101.857 20.404 101.857 19.252C101.857 18.244 101.713 17.404 101.425 16.732C101.161 16.06 100.801 15.52 100.345 15.112C99.9127 14.704 99.3967 14.416 98.7967 14.248C98.1967 14.08 97.5727 13.996 96.9247 13.996ZM115.804 29.944H108.676L106.66 37H103.996L111.592 11.404H113.068L120.664 37H117.856L115.804 29.944ZM109.396 27.532H115.156L112.96 19.756L112.276 15.976H112.204L111.52 19.828L109.396 27.532ZM129.311 24.436H136.259V35.524C135.587 36.148 134.723 36.628 133.667 36.964C132.611 37.276 131.543 37.432 130.463 37.432C129.119 37.432 127.895 37.18 126.791 36.676C125.711 36.172 124.787 35.392 124.019 34.336C123.251 33.256 122.651 31.9 122.219 30.268C121.811 28.636 121.607 26.68 121.607 24.4C121.607 22.048 121.859 20.056 122.363 18.424C122.867 16.768 123.539 15.424 124.379 14.392C125.243 13.336 126.215 12.568 127.295 12.088C128.399 11.608 129.527 11.368 130.679 11.368C131.831 11.368 132.791 11.452 133.559 11.62C134.351 11.764 135.023 11.968 135.575 12.232L134.927 14.68C134.447 14.416 133.871 14.212 133.199 14.068C132.551 13.924 131.795 13.852 130.931 13.852C130.091 13.852 129.287 14.032 128.519 14.392C127.751 14.752 127.055 15.352 126.431 16.192C125.831 17.008 125.351 18.088 124.991 19.432C124.631 20.776 124.451 22.432 124.451 24.4C124.451 28 125.015 30.664 126.143 32.392C127.295 34.096 128.867 34.948 130.859 34.948C132.107 34.948 133.139 34.648 133.955 34.048V26.704L129.311 26.02V24.436ZM140.081 11.8H151.277V14.284H142.781V22.816H150.593V25.3H142.781V34.516H151.457V37H140.081V11.8Z" fill="white"/>
</svg>
