<svg width="281" height="28" viewBox="0 0 281 28" fill="none" xmlns="http://www.w3.org/2000/svg">
<path d="M17.5432 20.232L19.9912 27.108H23.9872L14.0152 0.899999H10.7752L0.407194 27.108H4.29519L6.74319 20.232H17.5432ZM12.5032 4.5L16.5712 17.064H7.60719L12.5032 4.5ZM49.4519 7.92C47.3159 3.24 43.8599 0.899999 39.0839 0.899999H30.4799V27H38.6159C46.6319 27 50.6399 22.452 50.6399 13.356C50.6399 11.508 50.2439 9.696 49.4519 7.92ZM33.8279 24.012V3.96H39.0839C40.2359 3.96 41.1959 4.068 41.9639 4.284C45.2759 5.22 46.9319 8.388 46.9319 13.788C46.9319 17.412 46.2479 20.016 44.8799 21.6C43.5119 23.16 41.6279 23.952 39.2279 23.976C38.8679 24 37.7639 24.012 35.9159 24.012H33.8279ZM76.449 7.92C74.313 3.24 70.857 0.899999 66.081 0.899999H57.477V27H65.613C73.629 27 77.637 22.452 77.637 13.356C77.637 11.508 77.241 9.696 76.449 7.92ZM60.825 24.012V3.96H66.081C67.233 3.96 68.193 4.068 68.961 4.284C72.273 5.22 73.929 8.388 73.929 13.788C73.929 17.412 73.245 20.016 71.877 21.6C70.509 23.16 68.625 23.952 66.225 23.976C65.865 24 64.761 24.012 62.913 24.012H60.825ZM116.039 4.68C115.031 2.016 112.067 0.684 107.147 0.684C104.339 0.684 102.191 1.26 100.703 2.412C99.2152 3.564 98.4712 5.268 98.4712 7.524V7.668C98.4712 10.524 100.139 12.576 103.475 13.824C109.787 15.528 112.943 17.736 112.943 20.448C112.943 23.208 110.807 24.588 106.535 24.588C103.511 24.588 101.327 23.556 99.9832 21.492L97.0672 22.32C98.1712 25.776 101.339 27.504 106.571 27.504C113.219 27.504 116.543 25.068 116.543 20.196C116.543 16.692 113.627 13.86 107.795 11.7C103.859 10.596 101.891 9.096 101.891 7.2C101.891 6.024 102.383 5.124 103.367 4.5C104.351 3.876 105.731 3.564 107.507 3.564C110.867 3.564 112.751 4.32 113.159 5.832L116.039 4.68ZM121.388 3.708H130.028V27.108H133.484V3.708H142.088V0.899999H121.388V3.708ZM168.296 23.724C169.064 22.452 169.448 21.156 169.448 19.836V0.719999H166.028V19.692C166.028 20.82 165.8 21.72 165.344 22.392C164.264 24.024 162.284 24.84 159.404 24.84C156.5 24.84 154.34 23.988 152.924 22.284C152.564 21.852 152.384 21.024 152.384 19.8V0.719999H148.928V19.764C148.928 21.3 149.312 22.668 150.08 23.868C151.688 26.316 154.64 27.54 158.936 27.54H159.332C163.772 27.54 166.76 26.268 168.296 23.724ZM196.529 7.92C194.393 3.24 190.937 0.899999 186.161 0.899999H177.557V27H185.693C193.709 27 197.717 22.452 197.717 13.356C197.717 11.508 197.321 9.696 196.529 7.92ZM180.905 24.012V3.96H186.161C187.313 3.96 188.273 4.068 189.041 4.284C192.353 5.22 194.009 8.388 194.009 13.788C194.009 17.412 193.325 20.016 191.957 21.6C190.589 23.16 188.705 23.952 186.305 23.976C185.945 24 184.841 24.012 182.993 24.012H180.905ZM223.634 27V24.192H208.694V14.58H220.646V11.772H208.694V3.888H223.238V1.08H205.274V27H223.634ZM250.09 0.899999V21.744L233.17 0.899999H230.11V27.108H233.422V6.3L250.198 27H253.51V0.899999H250.09ZM259.433 3.708H268.073V27.108H271.529V3.708H280.133V0.899999H259.433V3.708Z" fill="white"/>
</svg>
