<svg width="537" height="37" viewBox="0 0 537 37" fill="none" xmlns="http://www.w3.org/2000/svg">
<path d="M9.29446 2.23047C11.3335 2.21875 13.4429 2.66992 15.6226 3.58398L14.7613 6.76562C12.5816 5.92188 10.7359 5.5 9.22415 5.5C7.689 5.5 6.47025 5.79883 5.5679 6.39648C4.66556 6.99414 4.21439 7.82617 4.21439 8.89258C4.21439 9.66602 4.37259 10.3105 4.689 10.8262C5.01712 11.3301 5.5679 11.7871 6.34134 12.1973C7.11478 12.6074 8.1929 13.0176 9.57571 13.4277C12.0484 14.1426 13.8062 15.0859 14.8492 16.2578C15.8921 17.418 16.4136 18.9941 16.4136 20.9863C16.4136 23.2715 15.646 25.0645 14.1109 26.3652C12.5757 27.666 10.4663 28.3164 7.78275 28.3164C5.47415 28.3164 2.90775 27.7188 0.0835266 26.5234L1.12064 23.3945C2.70267 24.0156 3.96243 24.4492 4.89993 24.6953C5.83743 24.9297 6.79837 25.0469 7.78275 25.0469C9.34134 25.0469 10.5718 24.6895 11.4742 23.9746C12.3765 23.248 12.8277 22.2637 12.8277 21.0215C12.8277 20.2246 12.6577 19.5625 12.3179 19.0352C11.9781 18.5078 11.3921 18.0332 10.5601 17.6113C9.73978 17.1895 8.57376 16.7734 7.06204 16.3633C4.75345 15.7422 3.1011 14.8867 2.10501 13.7969C1.10892 12.707 0.61087 11.2363 0.61087 9.38477C0.61087 7.12305 1.37845 5.36523 2.9136 4.11133C4.46048 2.85742 6.58743 2.23047 9.29446 2.23047ZM32.5637 9.17383C34.4973 9.17383 36.3547 9.68945 38.1359 10.7207L36.9582 13.4277C35.4465 12.584 33.9817 12.1621 32.5637 12.1621C30.841 12.1621 29.5109 12.7305 28.5734 13.8672C27.6359 15.0039 27.1672 16.6211 27.1672 18.7188C27.1672 20.8281 27.6477 22.4395 28.6086 23.5527C29.5695 24.666 30.9582 25.2227 32.7746 25.2227C33.4426 25.2227 34.1926 25.123 35.0246 24.9238C35.8567 24.7129 36.6535 24.4434 37.4152 24.1152L38.3293 26.8047C37.4152 27.2383 36.4309 27.584 35.3762 27.8418C34.3215 28.0879 33.3254 28.2109 32.3879 28.2109C29.6223 28.2109 27.4836 27.3848 25.9719 25.7324C24.4602 24.0801 23.7043 21.7422 23.7043 18.7188C23.7043 15.7188 24.4836 13.3809 26.0422 11.7051C27.6008 10.0176 29.7746 9.17383 32.5637 9.17383ZM49.7509 11.8633C51.4618 10.0703 53.5536 9.17383 56.0263 9.17383C57.995 9.17383 59.5009 9.74219 60.5438 10.8789C61.5868 12.0156 62.1083 13.668 62.1083 15.8359V28H58.7157V16.082C58.7157 14.7109 58.4345 13.7148 57.872 13.0938C57.3095 12.4727 56.4071 12.1621 55.1649 12.1621C54.0634 12.1621 53.0321 12.4082 52.0712 12.9004C51.1102 13.3926 50.3368 14.0723 49.7509 14.9395V28H46.3759V0.859375H49.7509V11.8633ZM79.313 9.13867C82.0904 9.13867 84.2466 9.98242 85.7818 11.6699C87.317 13.3457 88.0845 15.6953 88.0845 18.7188C88.0845 21.7422 87.317 24.0918 85.7818 25.7676C84.2466 27.4434 82.0904 28.2812 79.313 28.2812C76.524 28.2812 74.3619 27.4434 72.8267 25.7676C71.2916 24.0918 70.524 21.7422 70.524 18.7188C70.524 15.6953 71.2916 13.3457 72.8267 11.6699C74.3619 9.98242 76.524 9.13867 79.313 9.13867ZM79.313 12.127C77.5787 12.127 76.2545 12.6895 75.3404 13.8145C74.438 14.9395 73.9869 16.5742 73.9869 18.7188C73.9869 20.8516 74.438 22.4805 75.3404 23.6055C76.2545 24.7305 77.5787 25.293 79.313 25.293C81.0357 25.293 82.3541 24.7305 83.2681 23.6055C84.1822 22.4805 84.6392 20.8516 84.6392 18.7188C84.6392 16.5859 84.1822 14.957 83.2681 13.832C82.3541 12.6953 81.0357 12.127 79.313 12.127ZM104.305 9.13867C107.082 9.13867 109.239 9.98242 110.774 11.6699C112.309 13.3457 113.076 15.6953 113.076 18.7188C113.076 21.7422 112.309 24.0918 110.774 25.7676C109.239 27.4434 107.082 28.2812 104.305 28.2812C101.516 28.2812 99.3538 27.4434 97.8186 25.7676C96.2834 24.0918 95.5159 21.7422 95.5159 18.7188C95.5159 15.6953 96.2834 13.3457 97.8186 11.6699C99.3538 9.98242 101.516 9.13867 104.305 9.13867ZM104.305 12.127C102.571 12.127 101.246 12.6895 100.332 13.8145C99.4299 14.9395 98.9788 16.5742 98.9788 18.7188C98.9788 20.8516 99.4299 22.4805 100.332 23.6055C101.246 24.7305 102.571 25.293 104.305 25.293C106.028 25.293 107.346 24.7305 108.26 23.6055C109.174 22.4805 109.631 20.8516 109.631 18.7188C109.631 16.5859 109.174 14.957 108.26 13.832C107.346 12.6953 106.028 12.127 104.305 12.127ZM121.949 1H125.324V28H121.949V1ZM170.861 6.69531C170.673 7.33984 170.263 8.68164 169.63 10.7207C169.009 12.7598 168.482 14.3887 168.048 15.6074L163.952 27.2793H160.49L156.394 15.6074C155.913 14.2363 155.374 12.5664 154.777 10.5977C154.179 8.61719 153.781 7.31641 153.581 6.69531L152.509 15.6074L150.962 28H147.675L150.927 2.51172H155.199L159.804 15.9766C159.945 16.4336 160.115 16.9492 160.314 17.5234C160.513 18.0977 160.718 18.7246 160.929 19.4043C161.503 21.2324 161.937 22.5625 162.23 23.3945C162.523 22.5508 162.95 21.2207 163.513 19.4043C163.724 18.7363 163.929 18.1152 164.128 17.541C164.327 16.9551 164.497 16.4336 164.638 15.9766L169.243 2.51172H173.533L176.767 28H173.497L171.95 15.6074L170.861 6.69531ZM192.003 9.20898C194.311 9.20898 196.087 9.81836 197.329 11.0371C198.583 12.2441 199.21 13.9727 199.21 16.2227V28H196.608L196.116 25.8379C194.311 27.5137 192.284 28.3516 190.034 28.3516C188.183 28.3516 186.712 27.8535 185.622 26.8574C184.532 25.8613 183.987 24.5254 183.987 22.8496C183.987 20.9043 184.784 19.3867 186.378 18.2969C187.972 17.207 190.21 16.6621 193.093 16.6621H195.817V16.1523C195.724 13.5156 194.37 12.1973 191.757 12.1973C190.96 12.1973 190.063 12.3203 189.067 12.5664C188.071 12.8008 187.069 13.123 186.061 13.5332L185.13 10.791C186.208 10.2871 187.345 9.90039 188.54 9.63086C189.747 9.34961 190.901 9.20898 192.003 9.20898ZM193.304 19.2461C191.429 19.2461 189.97 19.5566 188.927 20.1777C187.884 20.7871 187.362 21.6426 187.362 22.7441C187.362 23.5879 187.649 24.2383 188.224 24.6953C188.798 25.1406 189.601 25.3633 190.632 25.3633C191.616 25.3633 192.577 25.1582 193.515 24.748C194.452 24.3262 195.22 23.7637 195.817 23.0605V19.2461H193.304ZM212.108 12.0918C212.999 11.1074 213.977 10.375 215.044 9.89453C216.11 9.41406 217.305 9.17383 218.63 9.17383C220.598 9.17383 222.104 9.74219 223.147 10.8789C224.19 12.0156 224.712 13.668 224.712 15.8359V28H221.319V16.082C221.319 14.7109 221.038 13.7148 220.475 13.0938C219.913 12.4727 219.01 12.1621 217.768 12.1621C216.667 12.1621 215.635 12.4082 214.674 12.9004C213.714 13.3926 212.94 14.0723 212.354 14.9395V28H208.979V9.49023H211.721L212.108 12.0918ZM240.756 9.20898C243.065 9.20898 244.84 9.81836 246.082 11.0371C247.336 12.2441 247.963 13.9727 247.963 16.2227V28H245.362L244.869 25.8379C243.065 27.5137 241.037 28.3516 238.787 28.3516C236.936 28.3516 235.465 27.8535 234.375 26.8574C233.285 25.8613 232.741 24.5254 232.741 22.8496C232.741 20.9043 233.537 19.3867 235.131 18.2969C236.725 17.207 238.963 16.6621 241.846 16.6621H244.571V16.1523C244.477 13.5156 243.123 12.1973 240.51 12.1973C239.713 12.1973 238.817 12.3203 237.821 12.5664C236.825 12.8008 235.823 13.123 234.815 13.5332L233.883 10.791C234.961 10.2871 236.098 9.90039 237.293 9.63086C238.5 9.34961 239.655 9.20898 240.756 9.20898ZM242.057 19.2461C240.182 19.2461 238.723 19.5566 237.68 20.1777C236.637 20.7871 236.116 21.6426 236.116 22.7441C236.116 23.5879 236.403 24.2383 236.977 24.6953C237.551 25.1406 238.354 25.3633 239.385 25.3633C240.369 25.3633 241.33 25.1582 242.268 24.748C243.205 24.3262 243.973 23.7637 244.571 23.0605V19.2461H242.057ZM265.572 9.34961C266.393 9.34961 267.178 9.4668 267.928 9.70117C268.689 9.92383 269.357 10.2402 269.932 10.6504L270.336 9.49023H273.131V28.5098C273.131 30.9824 272.34 32.9277 270.758 34.3457C269.176 35.7754 267.02 36.4902 264.289 36.4902C262.918 36.4902 261.588 36.3203 260.299 35.9805C259.021 35.6523 257.891 35.1895 256.906 34.5918L258.172 31.8848C259.039 32.3652 260.053 32.752 261.213 33.0449C262.373 33.3496 263.469 33.502 264.5 33.502C266.176 33.502 267.471 33.0742 268.385 32.2188C269.299 31.375 269.756 30.1621 269.756 28.5801V25.9082C268.291 27.4902 266.527 28.2812 264.465 28.2812C261.875 28.2812 259.871 27.4785 258.453 25.873C257.035 24.2676 256.326 21.9883 256.326 19.0352C256.326 15.9648 257.129 13.5859 258.734 11.8984C260.34 10.1992 262.619 9.34961 265.572 9.34961ZM265.766 12.1621C263.914 12.1621 262.455 12.7773 261.389 14.0078C260.322 15.2266 259.789 16.9023 259.789 19.0352C259.789 21.0273 260.211 22.5684 261.055 23.6582C261.91 24.748 263.117 25.293 264.676 25.293C265.871 25.293 266.92 24.9648 267.822 24.3086C268.725 23.6523 269.369 22.7441 269.756 21.584V13.2344C269.205 12.8945 268.572 12.6309 267.857 12.4434C267.154 12.2559 266.457 12.1621 265.766 12.1621ZM286.521 12.0566C288.15 10.1348 290.189 9.17383 292.638 9.17383C295.451 9.17383 297.349 10.2637 298.334 12.4434C300.009 10.2637 302.154 9.17383 304.767 9.17383C306.83 9.17383 308.394 9.73633 309.461 10.8613C310.539 11.9863 311.078 13.6445 311.078 15.8359V28H307.685V16.082C307.685 14.7109 307.404 13.7148 306.841 13.0938C306.279 12.4727 305.377 12.1621 304.134 12.1621C303.033 12.1621 302.025 12.4023 301.111 12.8828C300.197 13.3633 299.453 14.0488 298.879 14.9395C298.879 14.9863 298.89 15.0977 298.914 15.2734C298.937 15.4492 298.949 15.6836 298.949 15.9766V28H295.556V16.082C295.556 14.7109 295.275 13.7148 294.713 13.0938C294.15 12.4727 293.242 12.1621 291.988 12.1621C290.933 12.1621 289.937 12.4082 289 12.9004C288.074 13.3926 287.33 14.0605 286.767 14.9043V28H283.392V9.49023H286.134L286.521 12.0566ZM322.956 19.3516C323.05 21.2734 323.566 22.7441 324.503 23.7637C325.441 24.7832 326.759 25.293 328.458 25.293C329.396 25.293 330.298 25.1934 331.165 24.9941C332.044 24.7949 333.04 24.4551 334.154 23.9746L335.226 26.4883C333.949 27.1094 332.753 27.5664 331.64 27.8594C330.527 28.1406 329.408 28.2812 328.283 28.2812C325.494 28.2812 323.331 27.4434 321.796 25.7676C320.261 24.0918 319.494 21.7422 319.494 18.7188C319.494 15.6953 320.249 13.3516 321.761 11.6875C323.273 10.0117 325.411 9.17383 328.177 9.17383C330.767 9.17383 332.695 9.95312 333.96 11.5117C335.238 13.0703 335.876 15.4316 335.876 18.5957V19.3516H322.956ZM332.378 16.5215C332.285 15.0801 331.874 13.9961 331.148 13.2695C330.433 12.5312 329.443 12.1621 328.177 12.1621C325.365 12.1621 323.683 13.6152 323.132 16.5215H332.378ZM347.649 12.0918C348.54 11.1074 349.519 10.375 350.585 9.89453C351.651 9.41406 352.847 9.17383 354.171 9.17383C356.14 9.17383 357.646 9.74219 358.689 10.8789C359.732 12.0156 360.253 13.668 360.253 15.8359V28H356.86V16.082C356.86 14.7109 356.579 13.7148 356.017 13.0938C355.454 12.4727 354.552 12.1621 353.31 12.1621C352.208 12.1621 351.177 12.4082 350.216 12.9004C349.255 13.3926 348.482 14.0723 347.896 14.9395V28H344.521V9.49023H347.263L347.649 12.0918ZM380.217 27.3848C378.823 27.9355 377.528 28.2109 376.333 28.2109C374.551 28.2109 373.192 27.7539 372.255 26.8398C371.329 25.9141 370.866 24.5605 370.866 22.7793V12.4082H367.632V9.49023H371.042L371.762 4.19922H374.259V9.49023H379.901V12.4082H374.259V22.2344C374.259 23.2891 374.464 24.0449 374.874 24.502C375.296 24.959 375.987 25.1875 376.948 25.1875C377.792 25.1875 378.671 25.0352 379.585 24.7305L380.217 27.3848ZM409.16 2.23047C411.199 2.21875 413.309 2.66992 415.488 3.58398L414.627 6.76562C412.447 5.92188 410.602 5.5 409.09 5.5C407.555 5.5 406.336 5.79883 405.434 6.39648C404.531 6.99414 404.08 7.82617 404.08 8.89258C404.08 9.66602 404.238 10.3105 404.555 10.8262C404.883 11.3301 405.434 11.7871 406.207 12.1973C406.981 12.6074 408.059 13.0176 409.441 13.4277C411.914 14.1426 413.672 15.0859 414.715 16.2578C415.758 17.418 416.279 18.9941 416.279 20.9863C416.279 23.2715 415.512 25.0645 413.977 26.3652C412.441 27.666 410.332 28.3164 407.649 28.3164C405.34 28.3164 402.774 27.7188 399.949 26.5234L400.986 23.3945C402.568 24.0156 403.828 24.4492 404.766 24.6953C405.703 24.9297 406.664 25.0469 407.649 25.0469C409.207 25.0469 410.438 24.6895 411.34 23.9746C412.242 23.248 412.693 22.2637 412.693 21.0215C412.693 20.2246 412.524 19.5625 412.184 19.0352C411.844 18.5078 411.258 18.0332 410.426 17.6113C409.606 17.1895 408.44 16.7734 406.928 16.3633C404.619 15.7422 402.967 14.8867 401.971 13.7969C400.975 12.707 400.477 11.2363 400.477 9.38477C400.477 7.12305 401.244 5.36523 402.779 4.11133C404.326 2.85742 406.453 2.23047 409.16 2.23047ZM429.406 28L422.375 9.49023H425.732L428.105 15.9414L428.72 17.5938L431.023 24.0449L431.779 21.7773C431.896 21.4141 432.154 20.6406 432.552 19.457C432.951 18.2617 433.367 17.0898 433.801 15.9414L436.209 9.49023H439.584L429.301 36.4902H426.242L429.406 28ZM452.763 9.17383C454.275 9.16211 456.027 9.55469 458.019 10.3516L457.123 13.1641C455.365 12.4727 453.912 12.127 452.763 12.127C451.708 12.127 450.876 12.332 450.267 12.7422C449.658 13.1406 449.353 13.6914 449.353 14.3945C449.353 15.0625 449.623 15.5723 450.162 15.9238C450.701 16.2754 451.509 16.6152 452.587 16.9434C453.865 17.3535 454.878 17.7344 455.628 18.0859C456.39 18.4258 457.052 18.9766 457.615 19.7383C458.177 20.4883 458.458 21.4902 458.458 22.7441C458.458 24.4434 457.843 25.7969 456.613 26.8047C455.394 27.8125 453.742 28.3164 451.656 28.3164C449.476 28.3164 447.373 27.8535 445.345 26.9277L446.4 24.0098C447.548 24.4902 448.509 24.8301 449.283 25.0293C450.068 25.2285 450.847 25.3281 451.621 25.3281C452.722 25.3281 453.572 25.1172 454.169 24.6953C454.767 24.2617 455.066 23.6348 455.066 22.8145C455.066 22.2871 454.896 21.8535 454.556 21.5137C454.228 21.1621 453.818 20.8926 453.326 20.7051C452.833 20.5059 452.13 20.2598 451.216 19.9668C450.115 19.6035 449.207 19.2461 448.492 18.8945C447.789 18.5312 447.191 17.9922 446.699 17.2773C446.207 16.5508 445.96 15.6016 445.96 14.4297C445.96 12.8242 446.576 11.5469 447.806 10.5977C449.048 9.64844 450.701 9.17383 452.763 9.17383ZM477.228 27.3848C475.833 27.9355 474.538 28.2109 473.343 28.2109C471.562 28.2109 470.202 27.7539 469.265 26.8398C468.339 25.9141 467.876 24.5605 467.876 22.7793V12.4082H464.642V9.49023H468.052L468.773 4.19922H471.269V9.49023H476.911V12.4082H471.269V22.2344C471.269 23.2891 471.474 24.0449 471.884 24.502C472.306 24.959 472.997 25.1875 473.958 25.1875C474.802 25.1875 475.681 25.0352 476.595 24.7305L477.228 27.3848ZM487.384 19.3516C487.477 21.2734 487.993 22.7441 488.93 23.7637C489.868 24.7832 491.186 25.293 492.886 25.293C493.823 25.293 494.725 25.1934 495.593 24.9941C496.471 24.7949 497.468 24.4551 498.581 23.9746L499.653 26.4883C498.376 27.1094 497.18 27.5664 496.067 27.8594C494.954 28.1406 493.835 28.2812 492.71 28.2812C489.921 28.2812 487.759 27.4434 486.223 25.7676C484.688 24.0918 483.921 21.7422 483.921 18.7188C483.921 15.6953 484.677 13.3516 486.188 11.6875C487.7 10.0117 489.839 9.17383 492.604 9.17383C495.194 9.17383 497.122 9.95312 498.388 11.5117C499.665 13.0703 500.304 15.4316 500.304 18.5957V19.3516H487.384ZM496.805 16.5215C496.712 15.0801 496.302 13.9961 495.575 13.2695C494.86 12.5312 493.87 12.1621 492.604 12.1621C489.792 12.1621 488.11 13.6152 487.559 16.5215H496.805ZM512.077 12.0566C513.706 10.1348 515.745 9.17383 518.194 9.17383C521.006 9.17383 522.905 10.2637 523.889 12.4434C525.565 10.2637 527.709 9.17383 530.323 9.17383C532.385 9.17383 533.95 9.73633 535.016 10.8613C536.094 11.9863 536.633 13.6445 536.633 15.8359V28H533.241V16.082C533.241 14.7109 532.959 13.7148 532.397 13.0938C531.834 12.4727 530.932 12.1621 529.69 12.1621C528.588 12.1621 527.581 12.4023 526.667 12.8828C525.752 13.3633 525.008 14.0488 524.434 14.9395C524.434 14.9863 524.446 15.0977 524.469 15.2734C524.493 15.4492 524.504 15.6836 524.504 15.9766V28H521.112V16.082C521.112 14.7109 520.831 13.7148 520.268 13.0938C519.706 12.4727 518.797 12.1621 517.543 12.1621C516.489 12.1621 515.493 12.4082 514.555 12.9004C513.629 13.3926 512.885 14.0605 512.323 14.9043V28H508.948V9.49023H511.69L512.077 12.0566Z" fill="white"/>
</svg>
