<svg width="256" height="28" viewBox="0 0 256 28" fill="none" xmlns="http://www.w3.org/2000/svg">
<path d="M6.39354 23.22C6.39354 24.66 7.41354 25.38 9.45354 25.38H10.3895V27H0.16554V25.38L1.42554 25.344C3.27354 25.296 4.19754 24.588 4.19754 23.22V4.248C4.19754 3.216 3.63354 2.616 2.50554 2.448H0.16554V0.827998H6.35754L17.7695 21.096L27.9935 0.827998H35.3735V2.448H32.8535C31.8935 2.616 31.4135 3.216 31.4135 4.248V23.22C31.4135 24.66 32.4215 25.38 34.4375 25.38H35.3735V27H23.9255V25.38L25.1855 25.344C27.0335 25.296 27.9575 24.588 27.9575 23.22V5.328L17.3015 26.208L6.39354 7.092V23.22ZM65.4021 25.38H67.3821V27H56.6541V25.38H58.8141C59.3181 25.38 59.6661 25.236 59.8581 24.948C60.0741 24.66 60.1821 24.408 60.1821 24.192V23.724L57.8781 17.352H47.7981L45.5661 23.724V24.156C45.5661 24.396 45.6861 24.648 45.9261 24.912C46.1661 25.152 46.5021 25.308 46.9341 25.38H49.0941V27H39.6981V25.38H41.4981C41.9301 25.308 42.3381 25.116 42.7221 24.804C43.0821 24.492 43.3341 24.132 43.4781 23.724L51.8301 0.36H55.0701L63.4221 23.724C63.7581 24.684 64.4181 25.236 65.4021 25.38ZM48.4461 15.66H57.3021L52.8741 3.24L48.4461 15.66ZM95.9888 25.38H98.0048V27H86.5568V25.38H89.0768C89.5808 25.38 89.8328 25.26 89.8328 25.02C89.8328 24.852 89.7368 24.648 89.5448 24.408L82.2008 15.156H78.9968V24.336C78.9968 25.032 79.5368 25.38 80.6168 25.38H82.9928V27H71.3288V25.38H73.9208C74.2808 25.38 74.6168 25.284 74.9288 25.092C75.2648 24.876 75.4328 24.624 75.4328 24.336V3.744C75.4328 3.336 75.2648 2.964 74.9288 2.628C74.6168 2.292 74.2088 2.124 73.7048 2.124H71.3288V0.503998H84.3968C87.0128 0.503998 89.0648 1.236 90.5528 2.7C92.0648 4.14 92.8208 5.964 92.8208 8.172C92.8208 12.276 90.5168 14.568 85.9088 15.048L93.3248 24.408C93.8768 25.056 94.7648 25.38 95.9888 25.38ZM78.9968 3.564V13.536H83.6408C87.1928 13.536 88.9688 11.736 88.9688 8.136C88.9688 4.512 87.8528 2.556 85.6208 2.268C84.8768 2.172 83.7368 2.124 82.2008 2.124C80.6648 2.124 79.7408 2.268 79.4288 2.556C79.1408 2.82 78.9968 3.156 78.9968 3.564ZM109.427 24.3C109.595 25.02 110.147 25.38 111.083 25.38H113.423V27H101.975V25.38H104.531C105.203 25.284 105.695 24.936 106.007 24.336V3.528C105.911 2.976 105.347 2.616 104.315 2.448H101.975V0.827998H113.423V2.448H110.903C110.255 2.544 109.763 2.904 109.427 3.528V14.04L120.983 4.248C121.079 3.984 121.127 3.756 121.127 3.564C121.127 3.036 120.719 2.664 119.903 2.448H118.391V0.827998H128.471V2.484H127.175C125.567 2.916 124.103 3.696 122.783 4.824L114.467 11.952L126.563 24.228C127.307 24.972 128.315 25.344 129.587 25.344H130.775V27H119.219V25.38L120.875 25.344C121.715 25.08 122.135 24.852 122.135 24.66C122.135 24.468 121.955 24.048 121.595 23.4L112.271 13.86L109.427 16.308V24.3ZM158.88 13.536C162.456 13.536 164.244 11.736 164.244 8.136C164.244 4.536 163.128 2.592 160.896 2.304C160.104 2.208 159.12 2.16 157.944 2.16C156.792 2.16 155.928 2.184 155.352 2.232C154.944 2.304 154.512 2.76 154.056 3.6V13.536H158.88ZM154.056 24.264C154.224 24.984 154.776 25.344 155.712 25.344H158.052V26.964H146.604V25.344L149.16 25.308C149.832 25.212 150.324 24.864 150.636 24.264V3.78C150.564 3.372 150.372 3.024 150.06 2.736C149.772 2.424 149.4 2.232 148.944 2.16H146.604V0.503998L159.672 0.539999C162.312 0.539999 164.364 1.26 165.828 2.7C167.316 4.14 168.06 5.976 168.06 8.208C168.06 12.864 165.108 15.192 159.204 15.192H154.056V24.264ZM198.068 25.38H200.048V27H189.32V25.38H191.48C191.984 25.38 192.332 25.236 192.524 24.948C192.74 24.66 192.848 24.408 192.848 24.192V23.724L190.544 17.352H180.464L178.232 23.724V24.156C178.232 24.396 178.352 24.648 178.592 24.912C178.832 25.152 179.168 25.308 179.6 25.38H181.76V27H172.364V25.38H174.164C174.596 25.308 175.004 25.116 175.388 24.804C175.748 24.492 176 24.132 176.144 23.724L184.496 0.36H187.736L196.088 23.724C196.424 24.684 197.084 25.236 198.068 25.38ZM181.112 15.66H189.968L185.54 3.24L181.112 15.66ZM223.11 0.899999C223.23 0.947999 223.314 0.971998 223.362 0.971998C223.434 0.971998 223.47 0.923998 223.47 0.827998C223.47 0.731999 223.398 0.576 223.254 0.36H225.162L228.834 5.688L227.754 6.516L226.962 5.544L225.45 4.176C224.322 3.144 223.17 2.52 221.994 2.304C220.818 2.088 219.726 1.98 218.718 1.98C217.71 1.98 216.738 2.136 215.802 2.448C214.866 2.736 213.93 3.204 212.994 3.852C212.082 4.5 211.242 5.256 210.474 6.12C209.73 6.984 209.13 8.004 208.674 9.18C208.218 10.356 207.99 11.568 207.99 12.816C207.99 16.368 208.902 19.32 210.726 21.672C212.574 24 214.938 25.164 217.818 25.164C220.698 25.164 222.75 24.66 223.974 23.652V17.712C223.758 16.488 223.194 15.876 222.282 15.876H219.978V14.22H230.418V15.876H228.222C227.31 15.876 226.854 16.488 226.854 17.712V24.156C226.182 24.9 225.522 25.452 224.874 25.812C224.226 26.172 223.374 26.52 222.318 26.856C221.262 27.192 219.678 27.36 217.566 27.36C215.454 27.36 213.606 27.024 212.022 26.352C210.462 25.656 209.118 24.672 207.99 23.4C206.862 22.128 205.938 20.556 205.218 18.684C204.522 16.812 204.174 15 204.174 13.248C204.174 8.784 206.142 5.148 210.078 2.34C212.238 0.803999 214.59 0.0359995 217.134 0.0359995C219.678 0.0359995 221.67 0.323999 223.11 0.899999ZM248.672 12.024C249.872 11.64 250.472 10.848 250.472 9.648V8.028H252.092V17.676H250.472V15.84C250.472 14.904 249.872 14.184 248.672 13.68H240.968V23.724C241.088 24.42 241.46 24.936 242.084 25.272L252.344 25.308C253.592 25.14 254.216 24.468 254.216 23.292V21.312H255.836V27H233.516V25.38H236.072C236.744 25.284 237.236 24.936 237.548 24.336V3.78C237.476 3.372 237.284 3.024 236.972 2.736C236.684 2.424 236.312 2.232 235.856 2.16H233.516V0.539999H255.26V6.264H253.64V4.068C253.544 3.396 252.944 2.784 251.84 2.232H242.264C241.856 2.304 241.424 2.76 240.968 3.6V12.024H248.672Z" fill="white"/>
</svg>
