<svg width="96" height="29" viewBox="0 0 96 29" fill="none" xmlns="http://www.w3.org/2000/svg">
<path d="M1.09798 1.972L6.56998 2.08H11.178C14.106 2.08 16.41 2.704 18.09 3.952C19.77 5.2 20.61 7.156 20.61 9.82C20.61 12.46 19.71 14.452 17.91 15.796C16.11 17.14 13.758 17.812 10.854 17.812C9.96599 17.812 9.29398 17.8 8.83798 17.776C8.71798 17.632 8.65798 17.428 8.65798 17.164L8.83798 16.444C9.14998 16.468 9.77398 16.48 10.71 16.48C12.63 16.48 14.226 15.916 15.498 14.788C16.794 13.636 17.442 12.124 17.442 10.252C17.442 8.356 16.866 6.736 15.714 5.392C14.586 4.024 13.182 3.34 11.502 3.34C9.82198 3.34 8.53798 3.388 7.64998 3.484C7.50598 3.892 7.39798 4.792 7.32599 6.184C7.25398 7.576 7.21798 11.308 7.21798 17.38V21.808C7.21798 23.776 7.27798 25.396 7.39798 26.668C8.52599 26.812 10.062 26.884 12.006 26.884C12.102 27.124 12.15 27.364 12.15 27.604C12.15 27.82 12.102 27.988 12.006 28.108L5.77798 28C3.95398 28 2.28598 28.096 0.773984 28.288C0.653984 28.144 0.593984 27.94 0.593984 27.676L0.629984 27.388C1.87798 27.1 2.69398 26.656 3.07798 26.056C3.38998 25.576 3.59398 24.976 3.68998 24.256C3.97798 22.072 4.12198 19.12 4.12198 15.4C4.12198 7.456 3.90598 3.412 3.47398 3.268C3.01798 3.148 2.22598 3.088 1.09798 3.088C1.04998 2.92 1.02598 2.728 1.02598 2.512C1.02598 2.296 1.04998 2.116 1.09798 1.972ZM46.7238 28.108L42.5118 28C40.6878 28 39.0918 28.096 37.7238 28.288C37.5798 28.096 37.5078 27.892 37.5078 27.676L37.5798 27.388C38.5158 27.172 39.1638 26.932 39.5238 26.668C39.9078 26.38 40.0998 26.068 40.0998 25.732C40.0998 25.396 39.9318 24.724 39.5958 23.716L37.4718 18.316C36.1758 18.244 34.6278 18.208 32.8278 18.208L27.6798 18.316L26.7798 20.62C25.5798 23.596 24.9798 25.708 24.9798 26.956C25.5318 26.98 26.3718 26.992 27.4998 26.992C27.5478 27.16 27.5718 27.352 27.5718 27.568C27.5718 27.784 27.5478 27.964 27.4998 28.108L23.6838 28C22.1718 28 20.8518 28.096 19.7238 28.288C19.5798 28.12 19.5078 27.916 19.5078 27.676L19.5798 27.388C20.8038 27.052 21.6918 26.524 22.2438 25.804C22.8198 25.084 23.6718 23.452 24.7998 20.908L33.6918 0.747999H34.2678L42.5478 21.916C42.6918 22.372 43.0638 23.26 43.6638 24.58C44.2878 25.876 44.6838 26.644 44.8518 26.884C45.5238 26.956 46.1478 26.992 46.7238 26.992C46.7958 27.16 46.8318 27.352 46.8318 27.568C46.8318 27.784 46.7958 27.964 46.7238 28.108ZM28.2198 16.912L32.8278 17.056C34.4838 17.056 35.8758 17.02 37.0038 16.948L32.8278 5.932L28.2198 16.912ZM62.6813 17.488L68.4413 17.596C69.5693 17.596 70.6733 17.5 71.7533 17.308C71.8493 17.548 71.8973 17.752 71.8973 17.92L71.8253 18.352C70.9133 18.736 70.4093 19.516 70.3133 20.692C70.1453 22.324 70.0613 24.628 70.0613 27.604C68.6213 27.604 66.9533 27.784 65.0573 28.144C63.1613 28.528 61.6493 28.72 60.5213 28.72C56.3933 28.72 53.1293 27.436 50.7293 24.868C48.3533 22.276 47.1653 19.024 47.1653 15.112C47.1653 11.176 48.4613 7.924 51.0533 5.356C53.6453 2.788 56.9573 1.504 60.9893 1.504C64.2533 1.504 67.1453 1.852 69.6653 2.548C69.8333 2.596 69.9173 2.68 69.9173 2.8C69.9173 2.92 69.9053 3.076 69.8813 3.268C69.8813 3.46 69.8573 3.736 69.8093 4.096C69.7853 4.432 69.7613 4.816 69.7373 5.248C69.6893 6.16 69.6653 7.36 69.6653 8.848C69.4973 8.944 69.2693 8.992 68.9813 8.992C68.6933 8.992 68.4653 8.956 68.2973 8.884C67.8653 6.94 67.5533 5.728 67.3613 5.248C65.4653 3.616 63.1613 2.8 60.4493 2.8C57.7613 2.8 55.5173 3.76 53.7173 5.68C51.9413 7.6 51.0533 10.228 51.0533 13.564C51.0533 15.916 51.4373 18.124 52.2053 20.188C52.9973 22.252 54.1613 23.956 55.6973 25.3C57.2573 26.62 59.0573 27.28 61.0973 27.28C63.1613 27.28 65.1293 26.848 67.0013 25.984V23.788C67.0013 21.988 66.9293 20.356 66.7853 18.892C65.5613 18.748 64.1933 18.676 62.6813 18.676C62.5853 18.508 62.5373 18.316 62.5373 18.1L62.6813 17.488ZM89.8031 28.144L83.6471 28H81.7391C78.9551 28 76.9511 28.096 75.7271 28.288C75.6071 28.144 75.5471 27.94 75.5471 27.676L75.5831 27.388C76.8311 27.1 77.6471 26.656 78.0311 26.056C78.3431 25.576 78.5471 24.976 78.6431 24.256C78.9311 22.072 79.0751 19.096 79.0751 15.328C79.0751 7.432 78.8591 3.412 78.4271 3.268C77.9711 3.148 77.1791 3.088 76.0511 3.088C76.0031 2.92 75.9791 2.728 75.9791 2.512C75.9791 2.296 76.0031 2.116 76.0511 1.972L81.5231 2.08H85.6631L94.1591 1.828C94.5671 1.828 94.7711 1.96 94.7711 2.224C94.7711 2.248 94.7351 2.536 94.6631 3.088C94.4231 4.576 94.2551 6.244 94.1591 8.092C93.8711 8.236 93.6071 8.308 93.3671 8.308C93.1511 8.308 92.9471 8.26 92.7551 8.164C92.4671 5.98 92.2511 4.624 92.1071 4.096C89.9231 3.592 87.9551 3.34 86.2031 3.34C84.4751 3.34 83.2751 3.388 82.6031 3.484C82.3151 5.02 82.1711 8.44 82.1711 13.744C82.5551 13.84 83.5751 13.888 85.2311 13.888C86.8871 13.888 88.1231 13.84 88.9391 13.744C89.7551 13.648 90.3431 13.456 90.7031 13.168C91.0871 12.88 91.3751 12.292 91.5671 11.404C92.0711 11.404 92.4431 11.476 92.6831 11.62C92.4431 12.988 92.3231 13.996 92.3231 14.644L92.3951 17.776C92.2271 17.896 92.0111 17.956 91.7471 17.956L91.2431 17.884L90.8471 15.508C89.5511 15.292 88.0391 15.184 86.3111 15.184C84.5831 15.184 83.2031 15.244 82.1711 15.364V21.808C82.1711 24.064 82.2431 25.648 82.3871 26.56C83.1311 26.656 83.9831 26.704 84.9431 26.704C87.4151 26.704 89.8631 26.38 92.2871 25.732C92.6471 25.156 92.9951 24.412 93.3311 23.5C93.6671 22.564 93.8591 22.012 93.9071 21.844C94.0511 21.82 94.2431 21.808 94.4831 21.808C94.7231 21.808 94.9871 21.916 95.2751 22.132C94.9151 23.836 94.6511 25.6 94.4831 27.424C94.4591 27.712 94.3031 27.868 94.0151 27.892C92.9591 28.06 91.5551 28.144 89.8031 28.144Z" fill="#3C424A"/>
</svg>
