<svg width="263" height="29" viewBox="0 0 263 29" fill="none" xmlns="http://www.w3.org/2000/svg">
<path d="M27.6007 28.108L23.3887 28C21.5647 28 19.9687 28.096 18.6007 28.288C18.4567 28.096 18.3847 27.892 18.3847 27.676L18.4567 27.388C19.3927 27.172 20.0407 26.932 20.4007 26.668C20.7847 26.38 20.9767 26.068 20.9767 25.732C20.9767 25.396 20.8087 24.724 20.4727 23.716L18.3487 18.316C17.0527 18.244 15.5047 18.208 13.7047 18.208L8.55672 18.316L7.65672 20.62C6.45672 23.596 5.85672 25.708 5.85672 26.956C6.40872 26.98 7.24872 26.992 8.37672 26.992C8.42472 27.16 8.44872 27.352 8.44872 27.568C8.44872 27.784 8.42472 27.964 8.37672 28.108L4.56072 28C3.04872 28 1.72872 28.096 0.600719 28.288C0.456719 28.12 0.384719 27.916 0.384719 27.676L0.456719 27.388C1.68072 27.052 2.56872 26.524 3.12072 25.804C3.69672 25.084 4.54872 23.452 5.67672 20.908L14.5687 0.747999H15.1447L23.4247 21.916C23.5687 22.372 23.9407 23.26 24.5407 24.58C25.1647 25.876 25.5607 26.644 25.7287 26.884C26.4007 26.956 27.0247 26.992 27.6007 26.992C27.6727 27.16 27.7087 27.352 27.7087 27.568C27.7087 27.784 27.6727 27.964 27.6007 28.108ZM9.09672 16.912L13.7047 17.056C15.3607 17.056 16.7527 17.02 17.8807 16.948L13.7047 5.932L9.09672 16.912ZM44.0581 28.108L38.1541 28C35.5621 28 33.4141 28.096 31.7101 28.288C31.5901 28.144 31.5301 27.94 31.5301 27.676L31.5661 27.388C33.2221 27.124 34.3141 26.788 34.8421 26.38C35.3701 25.948 35.7181 25.252 35.8861 24.292C36.2221 22.516 36.3901 19.54 36.3901 15.364C36.3901 11.188 36.3421 8.272 36.2461 6.616C36.1501 4.96 36.0301 3.928 35.8861 3.52C35.2861 3.4 34.5541 3.34 33.6901 3.34C31.6741 3.34 30.1021 3.604 28.9741 4.132L27.3901 8.092C26.8381 8.092 26.4301 7.996 26.1661 7.804L26.7421 2.224C26.7421 1.96 26.9461 1.828 27.3541 1.828L33.6901 2.08H42.5101L49.4221 1.828C49.8541 1.828 50.0701 1.96 50.0701 2.224C49.6861 4.336 49.4941 6.268 49.4941 8.02C49.3021 8.116 49.0621 8.164 48.7741 8.164C48.4861 8.164 48.2581 8.116 48.0901 8.02C47.6581 5.644 47.4181 4.348 47.3701 4.132C46.1701 3.604 44.5261 3.34 42.4381 3.34C41.5021 3.34 40.7461 3.4 40.1701 3.52C40.0981 3.736 40.0021 4.732 39.8821 6.508C39.7861 8.284 39.7381 10.564 39.7381 13.348V19.792C39.7381 22.456 39.9301 24.772 40.3141 26.74C41.4181 26.908 42.6661 26.992 44.0581 26.992C44.1301 27.184 44.1661 27.4 44.1661 27.64C44.1661 27.856 44.1301 28.012 44.0581 28.108ZM68.1049 28.108L62.2009 28C59.6089 28 57.4609 28.096 55.7569 28.288C55.6369 28.144 55.5769 27.94 55.5769 27.676L55.6129 27.388C57.2689 27.124 58.3609 26.788 58.8889 26.38C59.4169 25.948 59.7649 25.252 59.9329 24.292C60.2689 22.516 60.4369 19.54 60.4369 15.364C60.4369 11.188 60.3889 8.272 60.2929 6.616C60.1969 4.96 60.0769 3.928 59.9329 3.52C59.3329 3.4 58.6009 3.34 57.7369 3.34C55.7209 3.34 54.1489 3.604 53.0209 4.132L51.4369 8.092C50.8849 8.092 50.4769 7.996 50.2129 7.804L50.7889 2.224C50.7889 1.96 50.9929 1.828 51.4009 1.828L57.7369 2.08H66.5569L73.4689 1.828C73.9009 1.828 74.1169 1.96 74.1169 2.224C73.7329 4.336 73.5409 6.268 73.5409 8.02C73.3489 8.116 73.1089 8.164 72.8209 8.164C72.5329 8.164 72.3049 8.116 72.1369 8.02C71.7049 5.644 71.4649 4.348 71.4169 4.132C70.2169 3.604 68.5729 3.34 66.4849 3.34C65.5489 3.34 64.7929 3.4 64.2169 3.52C64.1449 3.736 64.0489 4.732 63.9289 6.508C63.8329 8.284 63.7849 10.564 63.7849 13.348V19.792C63.7849 22.456 63.9769 24.772 64.3609 26.74C65.4649 26.908 66.7129 26.992 68.1049 26.992C68.1769 27.184 68.2129 27.4 68.2129 27.64C68.2129 27.856 68.1769 28.012 68.1049 28.108ZM90.0512 28.144L83.8952 28H81.9872C79.2032 28 77.1992 28.096 75.9752 28.288C75.8552 28.144 75.7952 27.94 75.7952 27.676L75.8312 27.388C77.0792 27.1 77.8952 26.656 78.2792 26.056C78.5912 25.576 78.7952 24.976 78.8912 24.256C79.1792 22.072 79.3232 19.096 79.3232 15.328C79.3232 7.432 79.1072 3.412 78.6752 3.268C78.2192 3.148 77.4272 3.088 76.2992 3.088C76.2512 2.92 76.2272 2.728 76.2272 2.512C76.2272 2.296 76.2512 2.116 76.2992 1.972L81.7712 2.08H85.9112L94.4072 1.828C94.8152 1.828 95.0192 1.96 95.0192 2.224C95.0192 2.248 94.9832 2.536 94.9112 3.088C94.6712 4.576 94.5032 6.244 94.4072 8.092C94.1192 8.236 93.8552 8.308 93.6152 8.308C93.3992 8.308 93.1952 8.26 93.0032 8.164C92.7152 5.98 92.4992 4.624 92.3552 4.096C90.1712 3.592 88.2032 3.34 86.4512 3.34C84.7232 3.34 83.5232 3.388 82.8512 3.484C82.5632 5.02 82.4192 8.44 82.4192 13.744C82.8032 13.84 83.8232 13.888 85.4792 13.888C87.1352 13.888 88.3712 13.84 89.1872 13.744C90.0032 13.648 90.5912 13.456 90.9512 13.168C91.3352 12.88 91.6232 12.292 91.8152 11.404C92.3192 11.404 92.6912 11.476 92.9312 11.62C92.6912 12.988 92.5712 13.996 92.5712 14.644L92.6432 17.776C92.4752 17.896 92.2592 17.956 91.9952 17.956L91.4912 17.884L91.0952 15.508C89.7992 15.292 88.2872 15.184 86.5592 15.184C84.8312 15.184 83.4512 15.244 82.4192 15.364V21.808C82.4192 24.064 82.4912 25.648 82.6352 26.56C83.3792 26.656 84.2312 26.704 85.1912 26.704C87.6632 26.704 90.1112 26.38 92.5352 25.732C92.8952 25.156 93.2432 24.412 93.5792 23.5C93.9152 22.564 94.1072 22.012 94.1552 21.844C94.2992 21.82 94.4912 21.808 94.7312 21.808C94.9712 21.808 95.2352 21.916 95.5232 22.132C95.1632 23.836 94.8992 25.6 94.7312 27.424C94.7072 27.712 94.5512 27.868 94.2632 27.892C93.2072 28.06 91.8032 28.144 90.0512 28.144ZM107.418 28.108L103.35 28C101.694 28 100.302 28.096 99.1741 28.288C99.0301 28.096 98.9581 27.892 98.9581 27.676L99.0301 27.388C100.278 27.1 101.106 26.656 101.514 26.056C101.826 25.576 102.03 24.976 102.126 24.256C102.558 21.136 102.834 14.548 102.954 4.492C102.354 3.844 101.826 3.424 101.37 3.232C100.914 3.04 100.182 2.908 99.1741 2.836C99.1021 2.692 99.0661 2.512 99.0661 2.296C99.0661 2.056 99.1021 1.876 99.1741 1.756L105.078 1.612C105.798 1.612 108.222 4.084 112.35 9.028C114.702 11.812 118.146 16.252 122.682 22.348C122.61 20.476 122.526 17.14 122.43 12.34C122.358 7.516 122.214 4.468 121.998 3.196C121.47 3.124 120.498 3.088 119.082 3.088C118.986 2.896 118.938 2.704 118.938 2.512C118.938 2.296 118.974 2.116 119.046 1.972L123.114 2.08C124.77 2.08 126.162 1.984 127.29 1.792C127.41 1.936 127.47 2.14 127.47 2.404L127.434 2.692C126.258 2.956 125.478 3.328 125.094 3.808C124.71 4.288 124.482 4.96 124.41 5.824C124.098 10.816 123.942 18.388 123.942 28.54L123.078 28.9L122.286 27.892C117.702 21.844 113.214 16.108 108.822 10.684C107.094 8.572 105.522 6.868 104.106 5.572C104.106 8.812 104.106 12.664 104.106 17.128C104.13 21.592 104.286 24.844 104.574 26.884C105.126 26.956 106.074 26.992 107.418 26.992C107.49 27.184 107.526 27.376 107.526 27.568C107.526 27.76 107.49 27.94 107.418 28.108ZM142.423 28.144L137.095 28C133.831 28 131.395 28.096 129.787 28.288C129.667 28.144 129.607 27.952 129.607 27.712L129.643 27.388C131.323 27.052 132.367 26.584 132.775 25.984C132.991 25.648 133.123 25.384 133.171 25.192C133.219 24.976 133.303 24.148 133.423 22.708C133.567 21.268 133.651 18.808 133.675 15.328V11.152C133.675 6.04 133.471 3.412 133.063 3.268C132.367 3.148 131.539 3.088 130.579 3.088C130.507 2.92 130.471 2.728 130.471 2.512C130.471 2.296 130.507 2.116 130.579 1.972L134.611 2.08H138.067L142.423 1.936C146.911 1.936 150.331 3.148 152.683 5.572C155.059 7.972 156.247 11.08 156.247 14.896C156.247 18.688 154.951 21.844 152.359 24.364C149.767 26.884 146.455 28.144 142.423 28.144ZM139.975 3.34C138.823 3.34 137.923 3.388 137.275 3.484C136.987 4.54 136.843 6.868 136.843 10.468V21.808C136.843 23.944 136.891 25.372 136.987 26.092C138.595 26.5 140.275 26.704 142.027 26.704C145.531 26.704 148.123 25.744 149.803 23.824C151.507 21.88 152.359 19.108 152.359 15.508C152.359 12.244 151.423 9.448 149.551 7.12C148.591 5.968 147.283 5.056 145.627 4.384C143.995 3.688 142.111 3.34 139.975 3.34ZM183.73 28.108L179.518 28C177.694 28 176.098 28.096 174.73 28.288C174.586 28.096 174.514 27.892 174.514 27.676L174.586 27.388C175.522 27.172 176.17 26.932 176.53 26.668C176.914 26.38 177.106 26.068 177.106 25.732C177.106 25.396 176.938 24.724 176.602 23.716L174.478 18.316C173.182 18.244 171.634 18.208 169.834 18.208L164.686 18.316L163.786 20.62C162.586 23.596 161.986 25.708 161.986 26.956C162.538 26.98 163.378 26.992 164.506 26.992C164.554 27.16 164.578 27.352 164.578 27.568C164.578 27.784 164.554 27.964 164.506 28.108L160.69 28C159.178 28 157.858 28.096 156.73 28.288C156.586 28.12 156.514 27.916 156.514 27.676L156.586 27.388C157.81 27.052 158.698 26.524 159.25 25.804C159.826 25.084 160.678 23.452 161.806 20.908L170.698 0.747999H171.274L179.554 21.916C179.698 22.372 180.07 23.26 180.67 24.58C181.294 25.876 181.69 26.644 181.858 26.884C182.53 26.956 183.154 26.992 183.73 26.992C183.802 27.16 183.838 27.352 183.838 27.568C183.838 27.784 183.802 27.964 183.73 28.108ZM165.226 16.912L169.834 17.056C171.49 17.056 172.882 17.02 174.01 16.948L169.834 5.932L165.226 16.912ZM193.164 28.108L189.096 28C187.44 28 186.048 28.096 184.92 28.288C184.776 28.096 184.704 27.892 184.704 27.676L184.776 27.388C186.024 27.1 186.852 26.656 187.26 26.056C187.572 25.576 187.776 24.976 187.872 24.256C188.304 21.136 188.58 14.548 188.7 4.492C188.1 3.844 187.572 3.424 187.116 3.232C186.66 3.04 185.928 2.908 184.92 2.836C184.848 2.692 184.812 2.512 184.812 2.296C184.812 2.056 184.848 1.876 184.92 1.756L190.824 1.612C191.544 1.612 193.968 4.084 198.096 9.028C200.448 11.812 203.892 16.252 208.428 22.348C208.356 20.476 208.272 17.14 208.176 12.34C208.104 7.516 207.96 4.468 207.744 3.196C207.216 3.124 206.244 3.088 204.828 3.088C204.732 2.896 204.684 2.704 204.684 2.512C204.684 2.296 204.72 2.116 204.792 1.972L208.86 2.08C210.516 2.08 211.908 1.984 213.036 1.792C213.156 1.936 213.216 2.14 213.216 2.404L213.18 2.692C212.004 2.956 211.224 3.328 210.84 3.808C210.456 4.288 210.228 4.96 210.156 5.824C209.844 10.816 209.688 18.388 209.688 28.54L208.824 28.9L208.032 27.892C203.448 21.844 198.96 16.108 194.568 10.684C192.84 8.572 191.268 6.868 189.852 5.572C189.852 8.812 189.852 12.664 189.852 17.128C189.876 21.592 190.032 24.844 190.32 26.884C190.872 26.956 191.82 26.992 193.164 26.992C193.236 27.184 193.272 27.376 193.272 27.568C193.272 27.76 193.236 27.94 193.164 28.108ZM230.293 28.72C226.165 28.72 222.901 27.436 220.501 24.868C218.125 22.276 216.937 19.024 216.937 15.112C216.937 11.176 218.233 7.924 220.825 5.356C223.417 2.788 226.729 1.504 230.761 1.504C233.953 1.504 236.785 1.9 239.257 2.692C239.377 2.764 239.437 2.86 239.437 2.98C239.437 3.076 239.401 3.448 239.329 4.096C239.017 6.328 238.849 7.96 238.825 8.992C238.465 9.064 238.213 9.1 238.069 9.1C237.925 9.1 237.709 9.052 237.421 8.956C237.205 7.3 236.989 6.064 236.773 5.248C236.149 4.576 235.273 4 234.145 3.52C233.017 3.04 231.733 2.8 230.293 2.8C227.557 2.8 225.289 3.76 223.489 5.68C221.713 7.6 220.825 10.228 220.825 13.564C220.825 15.916 221.209 18.124 221.977 20.188C222.769 22.252 223.933 23.956 225.469 25.3C227.029 26.62 228.877 27.28 231.013 27.28C233.149 27.28 235.045 26.704 236.701 25.552C237.157 24.784 237.721 23.5 238.393 21.7C238.969 21.7 239.413 21.82 239.725 22.06C239.389 23.788 239.137 25.528 238.969 27.28C238.945 27.544 238.789 27.7 238.501 27.748C236.197 28.396 233.461 28.72 230.293 28.72ZM257.5 28.144L251.344 28H249.436C246.652 28 244.648 28.096 243.424 28.288C243.304 28.144 243.244 27.94 243.244 27.676L243.28 27.388C244.528 27.1 245.344 26.656 245.728 26.056C246.04 25.576 246.244 24.976 246.34 24.256C246.628 22.072 246.772 19.096 246.772 15.328C246.772 7.432 246.556 3.412 246.124 3.268C245.668 3.148 244.876 3.088 243.748 3.088C243.7 2.92 243.676 2.728 243.676 2.512C243.676 2.296 243.7 2.116 243.748 1.972L249.22 2.08H253.36L261.856 1.828C262.264 1.828 262.468 1.96 262.468 2.224C262.468 2.248 262.432 2.536 262.36 3.088C262.12 4.576 261.952 6.244 261.856 8.092C261.568 8.236 261.304 8.308 261.064 8.308C260.848 8.308 260.644 8.26 260.452 8.164C260.164 5.98 259.948 4.624 259.804 4.096C257.62 3.592 255.652 3.34 253.9 3.34C252.172 3.34 250.972 3.388 250.3 3.484C250.012 5.02 249.868 8.44 249.868 13.744C250.252 13.84 251.272 13.888 252.928 13.888C254.584 13.888 255.82 13.84 256.636 13.744C257.452 13.648 258.04 13.456 258.4 13.168C258.784 12.88 259.072 12.292 259.264 11.404C259.768 11.404 260.14 11.476 260.38 11.62C260.14 12.988 260.02 13.996 260.02 14.644L260.092 17.776C259.924 17.896 259.708 17.956 259.444 17.956L258.94 17.884L258.544 15.508C257.248 15.292 255.736 15.184 254.008 15.184C252.28 15.184 250.9 15.244 249.868 15.364V21.808C249.868 24.064 249.94 25.648 250.084 26.56C250.828 26.656 251.68 26.704 252.64 26.704C255.112 26.704 257.56 26.38 259.984 25.732C260.344 25.156 260.692 24.412 261.028 23.5C261.364 22.564 261.556 22.012 261.604 21.844C261.748 21.82 261.94 21.808 262.18 21.808C262.42 21.808 262.684 21.916 262.972 22.132C262.612 23.836 262.348 25.6 262.18 27.424C262.156 27.712 262 27.868 261.712 27.892C260.656 28.06 259.252 28.144 257.5 28.144Z" fill="#85B4DC"/>
</svg>
