<svg width="482" height="31" viewBox="0 0 482 31" fill="none" xmlns="http://www.w3.org/2000/svg">
<path d="M20.1839 28H1.06787C0.755872 28 0.599872 27.856 0.599872 27.568V25.732C0.599872 25.444 0.755872 25.3 1.06787 25.3H3.80387V4.852H1.06787C0.755872 4.852 0.599872 4.708 0.599872 4.42V2.584C0.599872 2.296 0.755872 2.152 1.06787 2.152H20.1839C20.4959 2.152 20.6519 2.296 20.6519 2.584V8.38C20.6519 8.692 20.4959 8.848 20.1839 8.848H18.2399C17.9519 8.848 17.8079 8.692 17.8079 8.38V4.852H6.93587V13.78H16.0439C16.3559 13.78 16.5119 13.924 16.5119 14.212V16.048C16.5119 16.336 16.3559 16.48 16.0439 16.48H6.93587V25.3H17.7719V21.772C17.7719 21.484 17.9279 21.34 18.2399 21.34H20.1839C20.4959 21.34 20.6519 21.484 20.6519 21.772V27.568C20.6519 27.856 20.4959 28 20.1839 28ZM35.7834 28H25.4514C25.1634 28 25.0194 27.856 25.0194 27.568V25.732C25.0194 25.444 25.1634 25.3 25.4514 25.3H28.2234V4.852H25.4514C25.1634 4.852 25.0194 4.708 25.0194 4.42V2.584C25.0194 2.296 25.1634 2.152 25.4514 2.152H35.1714C39.1554 2.152 42.3234 3.304 44.6754 5.608C47.0274 7.888 48.2034 11.032 48.2034 15.04C48.2034 19.048 47.0874 22.216 44.8554 24.544C42.6234 26.848 39.5994 28 35.7834 28ZM31.3554 25.3H34.9194C41.5914 25.252 44.9274 21.856 44.9274 15.112C44.9274 11.872 44.0634 9.352 42.3354 7.552C40.6314 5.752 38.1234 4.852 34.8114 4.852H31.3554V25.3ZM60.6999 28H52.0599C51.7479 28 51.5919 27.856 51.5919 27.568V25.732C51.5919 25.444 51.7479 25.3 52.0599 25.3H54.7959V4.852H52.0599C51.7479 4.852 51.5919 4.708 51.5919 4.42V2.584C51.5919 2.296 51.7479 2.152 52.0599 2.152H60.6999C61.0119 2.152 61.1679 2.296 61.1679 2.584V4.42C61.1679 4.708 61.0119 4.852 60.6999 4.852H57.9279V25.3H60.6999C61.0119 25.3 61.1679 25.444 61.1679 25.732V27.568C61.1679 27.856 61.0119 28 60.6999 28ZM81.1949 28H72.8069C72.4949 28 72.3389 27.844 72.3389 27.532V25.768C72.3389 25.456 72.4949 25.3 72.8069 25.3H75.5429V4.852H68.7389V8.668C68.7389 9.004 68.5709 9.172 68.2349 9.172H66.2189C65.8829 9.172 65.7149 9.004 65.7149 8.668V2.62C65.7149 2.308 65.8829 2.152 66.2189 2.152H87.9269C88.2629 2.152 88.4309 2.308 88.4309 2.62V8.668C88.4309 9.004 88.2629 9.172 87.9269 9.172H85.8749C85.5629 9.172 85.4069 9.004 85.4069 8.668V4.852H78.6749V25.3H81.1949C81.5309 25.3 81.6989 25.456 81.6989 25.768V27.532C81.6989 27.844 81.5309 28 81.1949 28ZM107.476 30.664H105.316C105.076 30.664 104.956 30.568 104.956 30.376C104.956 30.328 104.968 30.28 104.992 30.232L113.704 1.072C113.824 0.783998 114.028 0.639998 114.316 0.639998H116.44C116.656 0.639998 116.764 0.711999 116.764 0.856C116.764 0.927999 116.752 0.999999 116.728 1.072L108.016 30.232C107.944 30.52 107.764 30.664 107.476 30.664ZM143.935 28H133.603C133.315 28 133.171 27.856 133.171 27.568V25.732C133.171 25.444 133.315 25.3 133.603 25.3H136.375V4.852H133.603C133.315 4.852 133.171 4.708 133.171 4.42V2.584C133.171 2.296 133.315 2.152 133.603 2.152H143.323C147.307 2.152 150.475 3.304 152.827 5.608C155.179 7.888 156.355 11.032 156.355 15.04C156.355 19.048 155.239 22.216 153.007 24.544C150.775 26.848 147.751 28 143.935 28ZM139.507 25.3H143.071C149.743 25.252 153.079 21.856 153.079 15.112C153.079 11.872 152.215 9.352 150.487 7.552C148.783 5.752 146.275 4.852 142.963 4.852H139.507V25.3ZM179.328 28H160.212C159.9 28 159.744 27.856 159.744 27.568V25.732C159.744 25.444 159.9 25.3 160.212 25.3H162.948V4.852H160.212C159.9 4.852 159.744 4.708 159.744 4.42V2.584C159.744 2.296 159.9 2.152 160.212 2.152H179.328C179.64 2.152 179.796 2.296 179.796 2.584V8.38C179.796 8.692 179.64 8.848 179.328 8.848H177.384C177.096 8.848 176.952 8.692 176.952 8.38V4.852H166.08V13.78H175.188C175.5 13.78 175.656 13.924 175.656 14.212V16.048C175.656 16.336 175.5 16.48 175.188 16.48H166.08V25.3H176.916V21.772C176.916 21.484 177.072 21.34 177.384 21.34H179.328C179.64 21.34 179.796 21.484 179.796 21.772V27.568C179.796 27.856 179.64 28 179.328 28ZM204.503 28H184.811C184.499 28 184.343 27.856 184.343 27.568V25.732C184.343 25.444 184.499 25.3 184.811 25.3H187.547V4.852H184.811C184.499 4.852 184.343 4.708 184.343 4.42V2.584C184.343 2.296 184.499 2.152 184.811 2.152H193.415C193.727 2.152 193.883 2.308 193.883 2.62V4.384C193.883 4.696 193.727 4.852 193.415 4.852H190.679V25.3H202.127V21.772C202.127 21.484 202.283 21.34 202.595 21.34H204.539C204.827 21.34 204.971 21.484 204.971 21.772V27.532C204.971 27.844 204.815 28 204.503 28ZM227.718 28H208.602C208.29 28 208.134 27.856 208.134 27.568V25.732C208.134 25.444 208.29 25.3 208.602 25.3H211.338V4.852H208.602C208.29 4.852 208.134 4.708 208.134 4.42V2.584C208.134 2.296 208.29 2.152 208.602 2.152H227.718C228.03 2.152 228.186 2.296 228.186 2.584V8.38C228.186 8.692 228.03 8.848 227.718 8.848H225.774C225.486 8.848 225.342 8.692 225.342 8.38V4.852H214.47V13.78H223.578C223.89 13.78 224.046 13.924 224.046 14.212V16.048C224.046 16.336 223.89 16.48 223.578 16.48H214.47V25.3H225.306V21.772C225.306 21.484 225.462 21.34 225.774 21.34H227.718C228.03 21.34 228.186 21.484 228.186 21.772V27.568C228.186 27.856 228.03 28 227.718 28ZM248.214 28H239.826C239.514 28 239.358 27.844 239.358 27.532V25.768C239.358 25.456 239.514 25.3 239.826 25.3H242.562V4.852H235.758V8.668C235.758 9.004 235.59 9.172 235.254 9.172H233.238C232.902 9.172 232.734 9.004 232.734 8.668V2.62C232.734 2.308 232.902 2.152 233.238 2.152H254.946C255.282 2.152 255.45 2.308 255.45 2.62V8.668C255.45 9.004 255.282 9.172 254.946 9.172H252.894C252.582 9.172 252.426 9.004 252.426 8.668V4.852H245.694V25.3H248.214C248.55 25.3 248.718 25.456 248.718 25.768V27.532C248.718 27.844 248.55 28 248.214 28ZM279.308 28H260.192C259.88 28 259.724 27.856 259.724 27.568V25.732C259.724 25.444 259.88 25.3 260.192 25.3H262.928V4.852H260.192C259.88 4.852 259.724 4.708 259.724 4.42V2.584C259.724 2.296 259.88 2.152 260.192 2.152H279.308C279.62 2.152 279.776 2.296 279.776 2.584V8.38C279.776 8.692 279.62 8.848 279.308 8.848H277.364C277.076 8.848 276.932 8.692 276.932 8.38V4.852H266.06V13.78H275.168C275.48 13.78 275.636 13.924 275.636 14.212V16.048C275.636 16.336 275.48 16.48 275.168 16.48H266.06V25.3H276.896V21.772C276.896 21.484 277.052 21.34 277.364 21.34H279.308C279.62 21.34 279.776 21.484 279.776 21.772V27.568C279.776 27.856 279.62 28 279.308 28ZM299.173 28H297.157C296.845 28 296.689 27.856 296.689 27.568V19.144C296.689 18.832 296.845 18.676 297.157 18.676H299.425C299.713 18.676 299.857 18.832 299.857 19.144V19.9C299.857 20.356 300.133 20.968 300.685 21.736C301.237 22.48 301.789 23.092 302.341 23.572C302.893 24.052 303.625 24.472 304.537 24.832C305.473 25.168 306.481 25.336 307.561 25.336C309.409 25.336 310.849 24.952 311.881 24.184C312.937 23.416 313.465 22.348 313.465 20.98C313.465 20.188 313.165 19.516 312.565 18.964C311.989 18.388 311.233 17.932 310.297 17.596C309.361 17.26 308.317 16.948 307.165 16.66C306.037 16.372 304.897 16.048 303.745 15.688C302.617 15.304 301.585 14.86 300.649 14.356C299.713 13.828 298.945 13.108 298.345 12.196C297.769 11.26 297.481 10.168 297.481 8.92C297.481 6.904 298.237 5.236 299.749 3.916C301.285 2.596 303.337 1.936 305.905 1.936C309.145 1.936 311.521 2.884 313.033 4.78L312.961 2.548C312.961 2.26 313.117 2.116 313.429 2.116H315.445C315.733 2.116 315.877 2.26 315.877 2.548V10.396C315.877 10.684 315.733 10.828 315.445 10.828H313.177C312.889 10.828 312.745 10.684 312.745 10.396V9.388C312.745 8.404 312.193 7.408 311.089 6.4C309.985 5.392 308.365 4.888 306.229 4.888C304.645 4.888 303.361 5.272 302.377 6.04C301.417 6.784 300.937 7.744 300.937 8.92C300.937 9.76 301.237 10.48 301.837 11.08C302.437 11.68 303.217 12.16 304.177 12.52C305.137 12.88 306.193 13.216 307.345 13.528C308.497 13.816 309.649 14.14 310.801 14.5C311.953 14.86 313.009 15.292 313.969 15.796C314.929 16.3 315.709 16.996 316.309 17.884C316.909 18.748 317.209 19.78 317.209 20.98C317.209 23.092 316.453 24.832 314.941 26.2C313.429 27.568 311.173 28.252 308.173 28.252C305.965 28.252 304.141 27.808 302.701 26.92C301.261 26.032 300.217 25.072 299.569 24.04L299.605 27.568C299.605 27.856 299.461 28 299.173 28ZM336.838 28H328.45C328.138 28 327.982 27.844 327.982 27.532V25.768C327.982 25.456 328.138 25.3 328.45 25.3H331.186V4.852H324.382V8.668C324.382 9.004 324.214 9.172 323.878 9.172H321.862C321.526 9.172 321.358 9.004 321.358 8.668V2.62C321.358 2.308 321.526 2.152 321.862 2.152H343.57C343.906 2.152 344.074 2.308 344.074 2.62V8.668C344.074 9.004 343.906 9.172 343.57 9.172H341.518C341.206 9.172 341.05 9.004 341.05 8.668V4.852H334.318V25.3H336.838C337.174 25.3 337.342 25.456 337.342 25.768V27.532C337.342 27.844 337.174 28 336.838 28ZM367.861 18.64V4.852H365.089C364.801 4.852 364.657 4.708 364.657 4.42V2.584C364.657 2.296 364.801 2.152 365.089 2.152H373.765C374.053 2.152 374.197 2.296 374.197 2.584V4.42C374.197 4.708 374.053 4.852 373.765 4.852H370.993V18.316C370.993 21.556 370.141 24.028 368.437 25.732C366.757 27.412 364.369 28.252 361.273 28.252C358.201 28.252 355.813 27.412 354.109 25.732C352.405 24.028 351.553 21.556 351.553 18.316V4.852H348.817C348.505 4.852 348.349 4.708 348.349 4.42V2.584C348.349 2.296 348.505 2.152 348.817 2.152H357.457C357.769 2.152 357.925 2.296 357.925 2.584V4.42C357.925 4.708 357.769 4.852 357.457 4.852H354.685V18.424C354.685 23.032 356.893 25.336 361.309 25.336C363.565 25.336 365.221 24.748 366.277 23.572C367.333 22.372 367.861 20.728 367.861 18.64ZM388.313 28H377.981C377.693 28 377.549 27.856 377.549 27.568V25.732C377.549 25.444 377.693 25.3 377.981 25.3H380.753V4.852H377.981C377.693 4.852 377.549 4.708 377.549 4.42V2.584C377.549 2.296 377.693 2.152 377.981 2.152H387.701C391.685 2.152 394.853 3.304 397.205 5.608C399.557 7.888 400.733 11.032 400.733 15.04C400.733 19.048 399.617 22.216 397.385 24.544C395.153 26.848 392.129 28 388.313 28ZM383.885 25.3H387.449C394.121 25.252 397.457 21.856 397.457 15.112C397.457 11.872 396.593 9.352 394.865 7.552C393.161 5.752 390.653 4.852 387.341 4.852H383.885V25.3ZM423.706 28H404.59C404.278 28 404.122 27.856 404.122 27.568V25.732C404.122 25.444 404.278 25.3 404.59 25.3H407.326V4.852H404.59C404.278 4.852 404.122 4.708 404.122 4.42V2.584C404.122 2.296 404.278 2.152 404.59 2.152H423.706C424.018 2.152 424.174 2.296 424.174 2.584V8.38C424.174 8.692 424.018 8.848 423.706 8.848H421.762C421.474 8.848 421.33 8.692 421.33 8.38V4.852H410.458V13.78H419.566C419.878 13.78 420.034 13.924 420.034 14.212V16.048C420.034 16.336 419.878 16.48 419.566 16.48H410.458V25.3H421.294V21.772C421.294 21.484 421.45 21.34 421.762 21.34H423.706C424.018 21.34 424.174 21.484 424.174 21.772V27.568C424.174 27.856 424.018 28 423.706 28ZM451.113 28H449.169C448.713 28 448.353 27.916 448.089 27.748C447.825 27.556 447.573 27.268 447.333 26.884L436.929 10.612L435.129 7.588H435.057V25.3H437.829C438.141 25.3 438.297 25.444 438.297 25.732V27.568C438.297 27.856 438.141 28 437.829 28H429.189C428.877 28 428.721 27.856 428.721 27.568V25.732C428.721 25.444 428.877 25.3 429.189 25.3H431.925V4.852H429.189C428.877 4.852 428.721 4.708 428.721 4.42V2.584C428.721 2.296 428.877 2.152 429.189 2.152H434.229C434.925 2.152 435.537 2.56 436.065 3.376L446.325 19.432L448.377 22.924H448.449V4.852H445.677C445.389 4.852 445.245 4.708 445.245 4.42V2.584C445.245 2.296 445.389 2.152 445.677 2.152H454.353C454.641 2.152 454.785 2.296 454.785 2.584V4.42C454.785 4.708 454.641 4.852 454.353 4.852H451.581V27.568C451.581 27.856 451.425 28 451.113 28ZM474.18 28H465.792C465.48 28 465.324 27.844 465.324 27.532V25.768C465.324 25.456 465.48 25.3 465.792 25.3H468.528V4.852H461.724V8.668C461.724 9.004 461.556 9.172 461.22 9.172H459.204C458.868 9.172 458.7 9.004 458.7 8.668V2.62C458.7 2.308 458.868 2.152 459.204 2.152H480.912C481.248 2.152 481.416 2.308 481.416 2.62V8.668C481.416 9.004 481.248 9.172 480.912 9.172H478.86C478.548 9.172 478.392 9.004 478.392 8.668V4.852H471.66V25.3H474.18C474.516 25.3 474.684 25.456 474.684 25.768V27.532C474.684 27.844 474.516 28 474.18 28Z" fill="white"/>
</svg>
